<svg xmlns="http://www.w3.org/2000/svg" viewBox="0 0 22.3 22.3"><path d="M15.4 9.4c0-1.7-.6-3.1-1.7-4.3s-2.6-1.7-4.3-1.7c-1.6 0-3 .6-4.2 1.7S3.4 7.7 3.4 9.4c0 1.6.6 3 1.8 4.2s2.6 1.8 4.2 1.8c1.7 0 3.1-.6 4.3-1.8s1.7-2.5 1.7-4.2zm6.9 11.1c0 .5-.2.9-.5 1.2s-.8.5-1.2.5-.9-.2-1.2-.5l-4.6-4.6c-1.6 1.1-3.4 1.7-5.3 1.7-1.3 0-2.5-.2-3.7-.8s-2.2-1.2-3-2-1.5-1.8-2-3C.3 11.9 0 10.7 0 9.4c0-1.3.3-2.5.8-3.7.5-1.2 1.2-2.2 2-3s1.8-1.5 3-2C6.9.2 8.2 0 9.4 0c1.3 0 2.5.2 3.7.7 1.1.5 2.2 1.2 3 2s1.5 1.9 2 3 .8 2.3.8 3.7c0 2-.6 3.8-1.7 5.3l4.6 4.6c.3.4.5.8.5 1.2z"/></svg>